<svg width="24" height="24" xmlns="http://www.w3.org/2000/svg">

 <g>
  <title>background</title>
  <rect fill="none" id="canvas_background" height="402" width="582" y="0" x="-1"/>
 </g>
 <g>
  <title>Layer 1</title>
  <path fill="#2699fb" id="password" d="m20,10l-4,0l-8,0l0,-2.8c0,-2.1 1.5,-4 3.6,-4.2c2.4,-0.2 4.4,1.7 4.4,4l0,0c0,0.6 0.4,1 1,1l1,0c0.6,0 1,-0.4 1,-1l0,0c0,-3.8 -3,-6.9 -6.8,-7c-3.9,-0.1 -7.2,3.1 -7.2,7l0,3l-1,0c-1.1,0 -2,0.9 -2,2l0,7c0,2.8 2.2,5 5,5l10,0c2.8,0 5,-2.2 5,-5l0,-7c0,-1.1 -0.9,-2 -2,-2zm-7,7.7l0,1.3c0,0.5 -0.5,1 -1,1s-1,-0.5 -1,-1l0,-1.3c-0.6,-0.3 -1,-1 -1,-1.7c0,-1.1 0.9,-2 2,-2s2,0.9 2,2c0,0.7 -0.4,1.4 -1,1.7z"/>
 </g>
</svg>